<?xml version="1.0" ?><!DOCTYPE svg  PUBLIC '-//W3C//DTD SVG 1.1//EN'  'http://www.w3.org/Graphics/SVG/1.1/DTD/svg11.dtd'><svg enable-background="new 0 0 512 512" height="512px" id="Layer_1" version="1.1" viewBox="0 0 512 512" width="512px" xml:space="preserve" xmlns="http://www.w3.org/2000/svg" xmlns:xlink="http://www.w3.org/1999/xlink"><g><polygon fill="#B95A59" points="109.664,92.292 119.679,85.16 124.879,94.174   "/><path d="M481,419.381C481,433.69,469.191,445,454.625,445H58.102C43.535,445,31,433.69,31,419.381v-280.97    C31,124.1,43.535,112,58.102,112h396.523C469.191,112,481,124.1,481,138.411V419.381z" fill="#656565"/><rect fill="#F7F7F7" height="304" width="192" x="50" y="92"/><path d="M256.5,409.59c1.801-6.761,7.5-11.914,14.5-12.856V396h-29v0.733    C249,397.676,254.699,402.829,256.5,409.59z" fill="#C6C5C4"/><linearGradient gradientUnits="userSpaceOnUse" id="SVGID_1_" x1="242" x2="271" y1="251.0303" y2="251.0303"><stop offset="0" style="stop-color:#EFEFEF"/><stop offset="1" style="stop-color:#E6E6E6"/></linearGradient><path d="M271,92.47v304.258c-7,0.952-12.693,6.097-14.5,12.861c-1.807-6.765-7.5-11.909-14.5-12.861V92.47    c8,0.915,12.8,5.894,14.5,12.468C258.199,98.364,264,93.385,271,92.47z" fill="url(#SVGID_1_)"/><polygon fill="#EFEFEF" points="416,344.266 269,395.373 269,93.48 416,42.372   "/><rect fill="#D1D0CF" height="26" width="413" x="50" y="396"/><rect fill="#F7F7F7" height="304" width="192" x="50" y="92"/><rect fill="#F4F4F4" height="304" width="192" x="271" y="92"/><linearGradient gradientUnits="userSpaceOnUse" id="SVGID_2_" x1="242" x2="271" y1="251.0303" y2="251.0303"><stop offset="0" style="stop-color:#EFEFEF"/><stop offset="1" style="stop-color:#E6E6E6"/></linearGradient><path d="M271,92.47v304.258c-7,0.952-12.693,6.097-14.5,12.861c-1.807-6.765-7.5-11.909-14.5-12.861V92.47    c8,0.915,12.8,5.894,14.5,12.468C258.199,98.364,264,93.385,271,92.47z" fill="url(#SVGID_2_)"/><polygon fill="#F4F4F4" points="272.86,92.292 271.814,92.66 271.814,92.292   "/><path d="M463,92v21.888c-3-0.903-5.378-1.888-8.374-1.888H416V92H463z" fill="#F4F4F4"/><polygon fill="#E0E2E0" points="416,344.829 269,396.165 269,92.917 416,41.581   "/><polygon fill="#F67876" points="102.501,312.604 119,326.332 119,85 86,85 86,326.32   "/></g></svg>