<?xml version="1.0" ?><!DOCTYPE svg  PUBLIC '-//W3C//DTD SVG 1.1//EN'  'http://www.w3.org/Graphics/SVG/1.1/DTD/svg11.dtd'><svg enable-background="new 0 0 512 512" height="512px" id="Layer_1" version="1.1" viewBox="0 0 512 512" width="512px" xml:space="preserve" xmlns="http://www.w3.org/2000/svg" xmlns:xlink="http://www.w3.org/1999/xlink"><g><polygon fill="#254745" points="484.305,209.842 256.948,348.093 29.612,209.842 258.323,51.622   "/><path d="M357.984,27H130.711C114.281,27,99,41.556,99,57.984v303.951C99,378.366,114.281,392,130.711,392h252.216    c16.43,0,29.073-13.634,29.073-30.065V82.925L357.984,27z" fill="#ECF0F1"/><path d="M387.731,83h24.944L360,28.237v24.94C360,69.607,371.302,83,387.731,83z" fill="#CCCECE"/><path d="M381.487,282.864    c0,26.725-21.662,48.387-48.384,48.387c-26.723,0-48.385-21.662-48.385-48.387c0-26.72,21.662-48.383,48.385-48.383    C359.825,234.481,381.487,256.144,381.487,282.864z" fill="none" stroke="#F67876" stroke-miterlimit="10" stroke-width="20"/><rect fill="#CECECE" height="49" width="112" x="143" y="233"/><rect fill="#CECECE" height="46" width="180" x="143" y="91"/><rect fill="#CECECE" height="46" width="229" x="141" y="163"/><polygon fill="#4A8D8A" points="484.301,209 256.646,347.672 29,209.842 29,486 484,486 484,209   "/><polygon fill="#3F4142" fill-opacity="0.1" points="30.017,209.842 29.612,209.842 29.612,485.611 256.958,347.604   "/></g></svg>