<?xml version="1.0" ?><!DOCTYPE svg  PUBLIC '-//W3C//DTD SVG 1.1//EN'  'http://www.w3.org/Graphics/SVG/1.1/DTD/svg11.dtd'><svg enable-background="new 0 0 512 512" height="512px" id="Layer_1" version="1.1" viewBox="0 0 512 512" width="512px" xml:space="preserve" xmlns="http://www.w3.org/2000/svg" xmlns:xlink="http://www.w3.org/1999/xlink"><g><path d="M490,105.281V378H24V105.281C24,94.144,32.133,86,43.271,86h426.671C481.079,86,490,94.144,490,105.281z" fill="#3A3A3A"/><linearGradient gradientUnits="userSpaceOnUse" id="SVGID_1_" x1="12" x2="500" y1="387.5" y2="387.5"><stop offset="0" style="stop-color:#BFBFBF"/><stop offset="0.3076" style="stop-color:#C2C2C2"/><stop offset="0.5325" style="stop-color:#CBCBCB"/><stop offset="0.7311" style="stop-color:#DBDBDB"/><stop offset="0.9135" style="stop-color:#F2F2F2"/><stop offset="1" style="stop-color:#FFFFFF"/></linearGradient><path d="M500,378v12.773c-4,4.644-8.729,6.227-15.211,6.227H28.247C21.768,397,16,395.417,12,390.773V378    H500z" fill="url(#SVGID_1_)"/><linearGradient gradientUnits="userSpaceOnUse" id="SVGID_2_" x1="12.3462" x2="500.417" y1="395" y2="395"><stop offset="0" style="stop-color:#808080"/><stop offset="0.3094" style="stop-color:#838383"/><stop offset="0.5357" style="stop-color:#8C8C8C"/><stop offset="0.7355" style="stop-color:#9C9C9C"/><stop offset="0.919" style="stop-color:#B3B3B3"/><stop offset="1" style="stop-color:#BFBFBF"/></linearGradient><path d="M12.346,391c3.746,5,9.421,8,15.899,8h456.545c6.479,0,11.882-3,15.626-8H12.346z" fill="url(#SVGID_2_)"/><rect fill="#669999" height="250" width="426" x="43" y="108"/><circle cx="253.693" cy="97.064" fill="#212121" r="2.989"/><circle cx="261.76" cy="97.064" fill="#FFFFFF" r="0.971"/><path d="M187.038,378c3.315,4,8.056,7,13.322,7h112.942c5.266,0,10.004-3,13.32-7H187.038z" fill="#999999"/><g><defs><path d="M355,325.366c0,5.014-4.105,8.634-9.121,8.634H83.648c-5.015,0-8.648-3.62-8.648-8.634V141.102      c0-5.014,3.633-9.102,8.648-9.102h262.231c5.016,0,9.121,4.088,9.121,9.102V325.366z" id="SVGID_3_"/></defs><clipPath id="SVGID_4_"><use overflow="visible" xlink:href="#SVGID_3_"/></clipPath><path clip-path="url(#SVGID_4_)" d="M355,325.366c0,5.014-4.105,8.634-9.121,8.634H83.648     c-5.015,0-8.648-3.62-8.648-8.634V141.102c0-5.014,3.633-9.102,8.648-9.102h262.231c5.016,0,9.121,4.088,9.121,9.102V325.366z" fill="#666666"/><rect clip-path="url(#SVGID_4_)" fill="#E3E5E4" height="166.038" width="280.189" x="75.026" y="152.499"/><circle clip-path="url(#SVGID_4_)" cx="85.404" cy="142.933" fill="#E3E5E4" r="3.405"/><circle clip-path="url(#SVGID_4_)" cx="95.781" cy="142.933" fill="#E3E5E4" r="3.406"/><circle clip-path="url(#SVGID_4_)" cx="106.158" cy="142.933" fill="#E3E5E4" r="3.404"/><rect clip-path="url(#SVGID_4_)" fill="#646470" fill-opacity="0.5" height="14.27" width="258.786" x="85.403" y="162.876"/><rect clip-path="url(#SVGID_4_)" fill="#646470" fill-opacity="0.5" height="65.292" width="258.786" x="85.403" y="184.928"/><rect clip-path="url(#SVGID_4_)" fill="#646470" fill-opacity="0.5" height="48.86" width="87.991" x="170.802" y="258.003"/><rect clip-path="url(#SVGID_4_)" fill="#646470" fill-opacity="0.5" height="48.86" width="73.29" x="84.755" y="258.003"/><rect clip-path="url(#SVGID_4_)" fill="#646470" fill-opacity="0.5" height="48.86" width="73.29" x="270.899" y="258.003"/></g><path d="M157.158,334h188.721c5.016,0,9.121-3.62,9.121-8.634V141.102    c0-5.014-4.105-9.102-9.121-9.102h-88.38L157.158,334z" fill="#E3E5E4" fill-opacity="0.2"/></g></svg>