<?xml version="1.0" ?><!DOCTYPE svg  PUBLIC '-//W3C//DTD SVG 1.1//EN'  'http://www.w3.org/Graphics/SVG/1.1/DTD/svg11.dtd'><svg enable-background="new 0 0 512 512" height="512px" id="Layer_1" version="1.1" viewBox="0 0 512 512" width="512px" xml:space="preserve" xmlns="http://www.w3.org/2000/svg" xmlns:xlink="http://www.w3.org/1999/xlink"><g><path d="M337,37.114c0,0.489-0.396,0.886-0.886,0.886h-39.229c-0.489,0-0.886-0.396-0.886-0.886V21.886    c0-0.489,0.396-0.886,0.886-0.886h39.229c0.489,0,0.886,0.396,0.886,0.886V37.114z" fill="#D6D4D4"/><path d="M153.793,99.616c0,0.489-0.396,0.886-0.886,0.886h-8.861c-0.49,0-0.886-0.397-0.886-0.886V80.121    c0-0.489,0.396-0.886,0.886-0.886h8.861c0.49,0,0.886,0.397,0.886,0.886V99.616z" fill="#D6D4D4"/><path d="M155.566,140.378c0,0.488-0.396,0.886-0.886,0.886h-10.634c-0.49,0-0.886-0.397-0.886-0.886v-15.065    c0-0.489,0.396-0.886,0.886-0.886h10.634c0.49,0,0.886,0.397,0.886,0.886V140.378z" fill="#D6D4D4"/><path d="M155.566,179.367c0,0.489-0.396,0.886-0.886,0.886h-10.634c-0.49,0-0.886-0.397-0.886-0.886v-15.064    c0-0.489,0.396-0.886,0.886-0.886h10.634c0.49,0,0.886,0.397,0.886,0.886V179.367z" fill="#D6D4D4"/><path d="M368.5,463.03c0,15.172-12.753,27.47-27.925,27.47H173.602    c-15.171,0-27.102-12.298-27.102-27.47V52.609c0-15.17,11.93-27.109,27.102-27.109h166.974c15.172,0,27.925,11.939,27.925,27.109    V463.03z" fill="#ECF0F1" stroke="#ECF0F1" stroke-miterlimit="10"/><circle cx="257.47" cy="45.119" fill="#BEC9CC" r="4.873"/><circle cx="257.47" cy="457.905" fill="#BEC9CC" r="21.267"/><circle cx="232.216" cy="61.069" fill="#BEC9CC" r="2.954"/><path d="M276,61.471c0,1.083,0.8,0.529-0.465,0.529h-34.382c-1.265,0-3.153,0.553-3.153-0.529v-0.654    c0-1.083,1.889-1.816,3.153-1.816h34.382C276.8,59,276,59.733,276,60.816V61.471z" fill="#BEC9CC"/><rect fill="#565656" height="344" width="194" x="160" y="79"/></g></svg>